<?xml version="1.0" encoding="iso-8859-1"?>
<!-- Generator: Adobe Illustrator 19.0.0, SVG Export Plug-In . SVG Version: 6.00 Build 0)  -->
<svg version="1.1" id="Capa_1" xmlns="http://www.w3.org/2000/svg" xmlns:xlink="http://www.w3.org/1999/xlink" x="0px" y="0px"
	 viewBox="0 0 512 512" style="enable-background:new 0 0 512 512;" xml:space="preserve">
<g>
	<g>
		<path d="M487.848,248C483.719,126.233,385.767,28.281,264,24.152V0h-16v24.152C126.233,28.281,28.281,126.233,24.152,248H0v16
			h24.152C28.281,385.767,126.233,483.719,248,487.848V512h16v-24.161C385.703,483.574,483.574,385.703,487.839,264H512v-16H487.848
			z M256,472c-119.294,0-216-96.706-216-216S136.706,40,256,40c119.239,0.132,215.868,96.761,216,216
			C472,375.294,375.294,472,256,472z"/>
	</g>
</g>
<g>
	<g>
		<path d="M306.281,95.661C291.882,84.788,274.115,79.215,256,80c-18.231-0.79-36.112,4.854-50.559,15.865l-0.033-0.105
			c-69.997,22.046-117.585,86.976-117.531,160.363C87.945,348.907,163.216,424.068,256,424
			c73.651,0.061,138.754-47.856,160.588-118.196C444.059,217.304,394.681,123.302,306.281,95.661z M216,107.728
			c11.731-8.097,25.754-12.209,40-11.728c14.245-0.483,28.268,3.625,40,11.72v35.125c-4-1.052-8-3.053-8-6.845c0-4.418-3.582-8-8-8
			h-48c-4.418,0-8,3.582-8,8c0,3.792-4,5.792-8,6.845V107.728z M216,159.256c9.619-0.922,18.111-6.669,22.544-15.256h34.912
			c4.433,8.587,12.925,14.334,22.544,15.256V168c0,22.144-10.48,48-40,48s-40-25.856-40-48V159.256z M278.689,237.999L256,260.688
			l-22.696-22.696l3.049-9.463c6.012,2.259,12.6,3.471,19.647,3.471c7.043,0,13.627-1.21,19.635-3.467L278.689,237.999z
			 M160.84,260.424l-8,16c-0.554,1.111-0.841,2.335-0.84,3.576v86.836c-18.422-17.246-32.804-39.317-40.947-65.094
			C86.863,225.166,126.444,143.708,200,114.648V152v16c0,22.678,8.352,41.23,22.183,52.417l-4.279,13.263l-53.064,22.984
			C163.105,257.406,161.688,258.738,160.84,260.424z M344,379.924c-7.462,5.295-15.475,9.971-24,13.915V352h-16v48h0.497
			c-0.903,0.304-1.806,0.608-2.718,0.897c-31.979,10.101-64.806,9.073-94.317-0.897H208v-48h-16v41.825
			c-8.398-3.901-16.433-8.564-24-13.928v-98.009l5.84-11.712l48.17-20.854l25.99,25.99V320h16v-44.688l25.987-25.987l48.165,20.851
			L344,281.888V379.924z M360,366.847V280c0.014-1.238-0.26-2.462-0.8-3.576l-8-16c-0.848-1.686-2.265-3.018-4-3.76l-53.12-22.984
			l-4.276-13.253C303.643,209.241,312,190.685,312,168v-16v-37.331c42.306,16.765,75.105,51.725,88.934,95.502
			C419.123,267.752,401.256,328.097,360,366.847z"/>
	</g>
</g>
<g>
	<g>
		<path d="M64,32v20.685L13.657,2.342L2.343,13.656L52.687,64H32v16h40c4.418,0,8-3.582,8-8V32H64z"/>
	</g>
</g>
<g>
	<g>
		<path d="M509.642,13.641L498.327,2.328L448,52.655V32h-16v40c0,4.418,3.582,8,8,8h40V64h-20.717L509.642,13.641z"/>
	</g>
</g>
<g>
	<g>
		<path d="M72,432H32v16h20.646L2.302,498.344l11.314,11.314L64,459.274V480h16v-40C80,435.582,76.418,432,72,432z"/>
	</g>
</g>
<g>
	<g>
		<path d="M459.314,448H480v-16h-40c-4.418,0-8,3.582-8,8v40h16v-20.686l50.327,50.327l11.314-11.314L459.314,448z"/>
	</g>
</g>
<g>
</g>
<g>
</g>
<g>
</g>
<g>
</g>
<g>
</g>
<g>
</g>
<g>
</g>
<g>
</g>
<g>
</g>
<g>
</g>
<g>
</g>
<g>
</g>
<g>
</g>
<g>
</g>
<g>
</g>
</svg>
